<svg width="239" height="112" viewBox="0 0 239 112" fill="none" xmlns="http://www.w3.org/2000/svg">
<g filter="url(#filter0_ddd_33_82)">
<path d="M115.785 56.904C117.641 56.904 119.369 57.176 120.969 57.72C122.601 58.232 124.057 58.968 125.337 59.928C126.617 60.888 127.657 62.008 128.457 63.288C129.289 64.568 129.833 65.96 130.089 67.464C130.217 67.976 130.233 68.312 130.137 68.472C130.073 68.632 129.897 68.728 129.609 68.76L123.129 69.192C122.841 69.192 122.649 69.144 122.553 69.048C122.489 68.92 122.425 68.728 122.361 68.472C122.009 66.808 121.321 65.448 120.297 64.392C119.273 63.304 117.849 62.76 116.025 62.76C113.625 62.76 111.737 63.736 110.361 65.688C109.017 67.608 108.345 70.728 108.345 75.048C108.345 79.336 108.985 82.456 110.265 84.408C111.577 86.328 113.529 87.288 116.121 87.288C117.977 87.288 119.577 86.824 120.921 85.896C122.265 84.968 123.369 83.384 124.233 81.144C124.361 80.856 124.713 80.76 125.289 80.856L129.993 81.864C130.153 81.896 130.297 81.992 130.425 82.152C130.553 82.28 130.585 82.584 130.521 83.064C130.361 83.736 130.041 84.52 129.561 85.416C129.113 86.312 128.505 87.24 127.737 88.2C126.969 89.128 126.009 89.992 124.857 90.792C123.737 91.592 122.425 92.248 120.921 92.76C119.417 93.24 117.705 93.48 115.785 93.48C112.489 93.48 109.609 92.696 107.145 91.128C104.713 89.56 102.841 87.384 101.529 84.6C100.217 81.816 99.5614 78.584 99.5614 74.904C99.5614 71.192 100.217 68.008 101.529 65.352C102.841 62.664 104.713 60.584 107.145 59.112C109.577 57.64 112.457 56.904 115.785 56.904ZM164.487 91.704C164.615 92.056 164.599 92.36 164.439 92.616C164.311 92.872 164.087 93 163.767 93H156.711C156.167 93 155.815 92.712 155.655 92.136L150.471 78.696C150.279 78.248 149.831 78.024 149.127 78.024H144.567C144.343 78.024 144.183 78.088 144.087 78.216C144.023 78.344 143.991 78.456 143.991 78.552V91.848C143.991 92.616 143.559 93 142.695 93H136.599C136.215 93 135.943 92.92 135.783 92.76C135.655 92.6 135.591 92.36 135.591 92.04V58.296C135.591 57.688 135.847 57.384 136.359 57.384H151.335C155.623 57.384 158.951 58.232 161.319 59.928C163.719 61.624 164.919 64.04 164.919 67.176C164.919 68.808 164.615 70.264 164.007 71.544C163.399 72.824 162.599 73.896 161.607 74.76C160.615 75.592 159.527 76.216 158.343 76.632C158.055 76.728 157.991 76.968 158.151 77.352L164.487 91.704ZM150.567 72.36C152.391 72.36 153.783 71.976 154.743 71.208C155.735 70.408 156.231 69.256 156.231 67.752C156.231 66.184 155.735 65 154.743 64.2C153.751 63.4 152.439 63 150.807 63H144.903C144.295 63 143.991 63.272 143.991 63.816V71.544C143.991 72.088 144.215 72.36 144.663 72.36H150.567ZM171.239 93C170.567 93 170.231 92.632 170.231 91.896V58.296C170.231 57.688 170.503 57.384 171.047 57.384H180.983C181.335 57.384 181.591 57.432 181.751 57.528C181.911 57.624 182.039 57.816 182.135 58.104L189.383 78.216C189.479 78.504 189.591 78.648 189.719 78.648C189.847 78.616 189.959 78.472 190.055 78.216L196.967 58.488C197.159 57.752 197.511 57.384 198.023 57.384H208.343C208.823 57.384 209.063 57.672 209.063 58.248V91.848C209.063 92.616 208.663 93 207.863 93H201.671C201.287 93 201.015 92.92 200.855 92.76C200.727 92.6 200.663 92.36 200.663 92.04V68.136C200.663 67.912 200.599 67.816 200.471 67.848C200.375 67.848 200.295 67.96 200.231 68.184L191.831 92.232C191.639 92.744 191.303 93 190.823 93H186.839C186.295 93 185.943 92.744 185.783 92.232L177.479 68.52C177.383 68.232 177.271 68.104 177.143 68.136C177.047 68.168 176.999 68.312 176.999 68.568V92.136C176.999 92.456 176.935 92.68 176.807 92.808C176.711 92.936 176.487 93 176.135 93H171.239Z" fill="black"/>
</g>
<g filter="url(#filter1_ddd_33_82)">
<path d="M14.1611 12.248C14.1611 11.992 14.2411 11.784 14.4011 11.624C14.5611 11.464 14.8011 11.384 15.1211 11.384H42.6731C43.0251 11.384 43.2651 11.464 43.3931 11.624C43.5531 11.784 43.6331 11.992 43.6331 12.248V16.712C43.6331 17.192 43.3451 17.432 42.7691 17.432H33.7931C33.4411 17.432 33.2651 17.592 33.2651 17.912V46.088C33.2651 46.696 32.9931 47 32.4491 47H25.5851C25.1051 47 24.8651 46.728 24.8651 46.184V18.056C24.8651 17.64 24.6891 17.432 24.3371 17.432H15.0731C14.4651 17.432 14.1611 17.192 14.1611 16.712V12.248ZM55.281 45.848C55.281 46.264 55.185 46.568 54.993 46.76C54.801 46.92 54.465 47 53.985 47H48.945C48.529 47 48.241 46.92 48.081 46.76C47.953 46.6 47.889 46.344 47.889 45.992V22.472C47.889 21.864 48.145 21.56 48.657 21.56H54.561C55.041 21.56 55.281 21.832 55.281 22.376V45.848ZM55.377 17.288C55.377 18.088 54.945 18.488 54.081 18.488H48.897C48.481 18.488 48.193 18.392 48.033 18.2C47.905 18.008 47.841 17.736 47.841 17.384V12.344C47.841 11.704 48.113 11.384 48.657 11.384H54.609C55.121 11.384 55.377 11.688 55.377 12.296V17.288ZM61.6961 47C61.2801 47 60.9921 46.92 60.8321 46.76C60.6721 46.6 60.5921 46.328 60.5921 45.944V12.296C60.5921 11.688 60.8481 11.384 61.3601 11.384H67.2641C67.7441 11.384 67.9841 11.672 67.9841 12.248V23.432C67.9841 23.816 68.0641 24.024 68.2241 24.056C68.4161 24.056 68.6241 23.96 68.8481 23.768C69.3601 23.288 69.9361 22.856 70.5761 22.472C71.2481 22.056 72.0001 21.72 72.8321 21.464C73.6641 21.208 74.5761 21.08 75.5681 21.08C77.7441 21.08 79.5681 21.624 81.0401 22.712C82.5441 23.8 83.6801 25.32 84.4481 27.272C85.2161 29.224 85.6001 31.512 85.6001 34.136C85.6001 38.2 84.6561 41.448 82.7681 43.88C80.8801 46.28 78.1761 47.48 74.6561 47.48C73.5041 47.48 72.4321 47.304 71.4401 46.952C70.4801 46.568 69.6321 46.072 68.8961 45.464C68.1921 44.856 67.5841 44.232 67.0721 43.592C66.9441 43.432 66.8161 43.368 66.6881 43.4C66.5921 43.4 66.5281 43.512 66.4961 43.736L65.9201 46.04C65.7601 46.68 65.3921 47 64.8161 47H61.6961ZM67.9841 38.216C67.9841 39.176 68.2081 40.008 68.6561 40.712C69.1041 41.416 69.6801 41.976 70.3841 42.392C71.1201 42.776 71.9201 42.968 72.7841 42.968C73.8401 42.968 74.7681 42.68 75.5681 42.104C76.3681 41.528 76.9761 40.6 77.3921 39.32C77.8401 38.008 78.0641 36.312 78.0641 34.232C78.0641 31.288 77.6321 29.144 76.7681 27.8C75.9041 26.456 74.6401 25.784 72.9761 25.784C71.9521 25.784 71.0241 26.024 70.1921 26.504C69.3601 26.952 68.6241 27.56 67.9841 28.328V38.216ZM96.3221 36.44C96.3221 37.624 96.5941 38.68 97.1381 39.608C97.7141 40.504 98.4661 41.208 99.3941 41.72C100.354 42.2 101.426 42.44 102.61 42.44C103.762 42.44 104.818 42.2 105.778 41.72C106.77 41.208 107.762 40.376 108.754 39.224C108.882 39.096 108.994 39.032 109.09 39.032C109.186 39 109.362 39.048 109.618 39.176L113.074 40.616C113.522 40.808 113.57 41.128 113.218 41.576C112.194 43.048 111.122 44.216 110.002 45.08C108.882 45.944 107.634 46.568 106.258 46.952C104.914 47.304 103.394 47.48 101.698 47.48C99.2021 47.48 96.9781 46.936 95.0261 45.848C93.0741 44.76 91.5221 43.256 90.3701 41.336C89.2501 39.384 88.6901 37.16 88.6901 34.664C88.6901 31.912 89.2661 29.528 90.4181 27.512C91.6021 25.464 93.1701 23.88 95.1221 22.76C97.0741 21.64 99.2181 21.08 101.554 21.08C104.018 21.08 106.178 21.624 108.034 22.712C109.89 23.768 111.346 25.288 112.402 27.272C113.49 29.256 114.034 31.672 114.034 34.52C114.034 34.872 114.002 35.144 113.938 35.336C113.874 35.528 113.634 35.64 113.218 35.672H96.8981C96.7061 35.672 96.5621 35.736 96.4661 35.864C96.3701 35.992 96.3221 36.184 96.3221 36.44ZM105.97 31.64C106.322 31.64 106.546 31.608 106.642 31.544C106.738 31.448 106.786 31.256 106.786 30.968C106.786 30.168 106.594 29.352 106.21 28.52C105.858 27.688 105.314 27 104.578 26.456C103.874 25.88 102.962 25.592 101.842 25.592C100.786 25.592 99.8421 25.848 99.0101 26.36C98.1781 26.872 97.5381 27.592 97.0901 28.52C96.6421 29.416 96.4181 30.44 96.4181 31.592L105.97 31.64ZM118.975 47C118.623 47 118.367 46.92 118.207 46.76C118.047 46.6 117.967 46.36 117.967 46.04V22.472C117.967 21.864 118.223 21.56 118.735 21.56H124.351C124.863 21.56 125.119 21.832 125.119 22.376V25.208C125.119 25.4 125.183 25.528 125.311 25.592C125.471 25.624 125.631 25.544 125.791 25.352C126.431 24.488 127.151 23.736 127.951 23.096C128.783 22.456 129.631 21.96 130.495 21.608C131.359 21.256 132.175 21.08 132.943 21.08C134.095 21.08 134.671 21.352 134.671 21.896V27.464C134.671 27.976 134.431 28.184 133.951 28.088C133.375 27.928 132.783 27.832 132.175 27.8C131.567 27.736 131.039 27.704 130.591 27.704C130.015 27.704 129.407 27.816 128.767 28.04C128.159 28.264 127.599 28.584 127.087 29C126.575 29.416 126.159 29.864 125.839 30.344C125.519 30.824 125.359 31.336 125.359 31.88V45.896C125.359 46.632 124.943 47 124.111 47H118.975ZM145.797 45.848C145.797 46.264 145.701 46.568 145.509 46.76C145.317 46.92 144.981 47 144.501 47H139.461C139.045 47 138.757 46.92 138.597 46.76C138.469 46.6 138.405 46.344 138.405 45.992V22.472C138.405 21.864 138.661 21.56 139.173 21.56H145.077C145.557 21.56 145.797 21.832 145.797 22.376V45.848ZM145.893 17.288C145.893 18.088 145.461 18.488 144.597 18.488H139.413C138.997 18.488 138.709 18.392 138.549 18.2C138.421 18.008 138.357 17.736 138.357 17.384V12.344C138.357 11.704 138.629 11.384 139.173 11.384H145.125C145.637 11.384 145.893 11.688 145.893 12.296V17.288ZM161.62 42.152C162.612 42.152 163.54 41.896 164.404 41.384C165.3 40.84 166.116 40.152 166.852 39.32V22.664C166.852 21.928 167.268 21.56 168.1 21.56H173.284C173.956 21.56 174.292 21.896 174.292 22.568L174.196 46.136C174.196 46.712 173.94 47 173.428 47H167.716C167.236 47 166.996 46.728 166.996 46.184V43.832C166.996 43.64 166.948 43.528 166.852 43.496C166.756 43.432 166.628 43.48 166.468 43.64C165.124 45.016 163.78 46.008 162.436 46.616C161.124 47.192 159.716 47.48 158.212 47.48C156.804 47.48 155.54 47.176 154.42 46.568C153.332 45.96 152.468 45.08 151.828 43.928C151.188 42.744 150.868 41.352 150.868 39.752V22.712C150.868 21.944 151.252 21.56 152.02 21.56H157.348C157.956 21.56 158.26 21.896 158.26 22.568V38.696C158.26 39.752 158.548 40.6 159.124 41.24C159.732 41.848 160.564 42.152 161.62 42.152ZM180.522 47C179.85 47 179.514 46.68 179.514 46.04V22.472C179.514 21.864 179.77 21.56 180.282 21.56H186.042C186.522 21.56 186.762 21.832 186.762 22.376V24.728C186.762 24.92 186.81 25.048 186.906 25.112C187.034 25.176 187.178 25.112 187.338 24.92C188.17 24.152 189.002 23.48 189.834 22.904C190.666 22.328 191.546 21.88 192.474 21.56C193.402 21.208 194.362 21.032 195.354 21.032C197.082 21.032 198.522 21.448 199.674 22.28C200.858 23.08 201.69 24.152 202.17 25.496C202.234 25.624 202.314 25.688 202.41 25.688C202.538 25.656 202.666 25.576 202.794 25.448C203.562 24.616 204.394 23.88 205.29 23.24C206.218 22.568 207.194 22.04 208.218 21.656C209.242 21.272 210.25 21.08 211.242 21.08C213.482 21.08 215.258 21.768 216.57 23.144C217.914 24.52 218.586 26.408 218.586 28.808V45.848C218.586 46.616 218.202 47 217.434 47H212.106C211.786 47 211.546 46.936 211.386 46.808C211.258 46.648 211.194 46.392 211.194 46.04V29.816C211.194 28.728 210.906 27.896 210.33 27.32C209.754 26.712 208.938 26.408 207.882 26.408C207.274 26.408 206.682 26.536 206.106 26.792C205.53 27.048 205.002 27.352 204.522 27.704C204.042 28.056 203.626 28.44 203.274 28.856C203.05 29.08 202.906 29.304 202.842 29.528C202.778 29.72 202.746 29.944 202.746 30.2V45.848C202.746 46.616 202.362 47 201.594 47H196.314C195.994 47 195.754 46.936 195.594 46.808C195.466 46.648 195.402 46.392 195.402 46.04V29.816C195.402 28.728 195.114 27.896 194.538 27.32C193.962 26.712 193.13 26.408 192.042 26.408C191.082 26.408 190.202 26.664 189.402 27.176C188.602 27.656 187.77 28.392 186.906 29.384V45.896C186.906 46.632 186.49 47 185.658 47H180.522Z" fill="black"/>
</g>
<defs>
<filter id="filter0_ddd_33_82" x="85.5615" y="45.9041" width="137.502" height="65.5759" filterUnits="userSpaceOnUse" color-interpolation-filters="sRGB">
<feFlood flood-opacity="0" result="BackgroundImageFix"/>
<feColorMatrix in="SourceAlpha" type="matrix" values="0 0 0 0 0 0 0 0 0 0 0 0 0 0 0 0 0 0 127 0" result="hardAlpha"/>
<feOffset dy="5"/>
<feGaussianBlur stdDeviation="2.5"/>
<feColorMatrix type="matrix" values="0 0 0 0 0 0 0 0 0 0 0 0 0 0 0 0 0 0 0.2 0"/>
<feBlend mode="normal" in2="BackgroundImageFix" result="effect1_dropShadow_33_82"/>
<feColorMatrix in="SourceAlpha" type="matrix" values="0 0 0 0 0 0 0 0 0 0 0 0 0 0 0 0 0 0 127 0" result="hardAlpha"/>
<feOffset dy="3"/>
<feGaussianBlur stdDeviation="7"/>
<feColorMatrix type="matrix" values="0 0 0 0 0 0 0 0 0 0 0 0 0 0 0 0 0 0 0.12 0"/>
<feBlend mode="normal" in2="effect1_dropShadow_33_82" result="effect2_dropShadow_33_82"/>
<feColorMatrix in="SourceAlpha" type="matrix" values="0 0 0 0 0 0 0 0 0 0 0 0 0 0 0 0 0 0 127 0" result="hardAlpha"/>
<feOffset dy="8"/>
<feGaussianBlur stdDeviation="5"/>
<feColorMatrix type="matrix" values="0 0 0 0 0 0 0 0 0 0 0 0 0 0 0 0 0 0 0.14 0"/>
<feBlend mode="normal" in2="effect2_dropShadow_33_82" result="effect3_dropShadow_33_82"/>
<feBlend mode="normal" in="SourceGraphic" in2="effect3_dropShadow_33_82" result="shape"/>
</filter>
<filter id="filter1_ddd_33_82" x="0.161133" y="0.384033" width="232.425" height="65.0959" filterUnits="userSpaceOnUse" color-interpolation-filters="sRGB">
<feFlood flood-opacity="0" result="BackgroundImageFix"/>
<feColorMatrix in="SourceAlpha" type="matrix" values="0 0 0 0 0 0 0 0 0 0 0 0 0 0 0 0 0 0 127 0" result="hardAlpha"/>
<feOffset dy="5"/>
<feGaussianBlur stdDeviation="2.5"/>
<feColorMatrix type="matrix" values="0 0 0 0 0 0 0 0 0 0 0 0 0 0 0 0 0 0 0.2 0"/>
<feBlend mode="normal" in2="BackgroundImageFix" result="effect1_dropShadow_33_82"/>
<feColorMatrix in="SourceAlpha" type="matrix" values="0 0 0 0 0 0 0 0 0 0 0 0 0 0 0 0 0 0 127 0" result="hardAlpha"/>
<feOffset dy="3"/>
<feGaussianBlur stdDeviation="7"/>
<feColorMatrix type="matrix" values="0 0 0 0 0 0 0 0 0 0 0 0 0 0 0 0 0 0 0.12 0"/>
<feBlend mode="normal" in2="effect1_dropShadow_33_82" result="effect2_dropShadow_33_82"/>
<feColorMatrix in="SourceAlpha" type="matrix" values="0 0 0 0 0 0 0 0 0 0 0 0 0 0 0 0 0 0 127 0" result="hardAlpha"/>
<feOffset dy="8"/>
<feGaussianBlur stdDeviation="5"/>
<feColorMatrix type="matrix" values="0 0 0 0 0 0 0 0 0 0 0 0 0 0 0 0 0 0 0.14 0"/>
<feBlend mode="normal" in2="effect2_dropShadow_33_82" result="effect3_dropShadow_33_82"/>
<feBlend mode="normal" in="SourceGraphic" in2="effect3_dropShadow_33_82" result="shape"/>
</filter>
</defs>
</svg>
