<svg width="50" height="50" viewBox="0 0 50 50" fill="none" xmlns="http://www.w3.org/2000/svg">
<path d="M25 0C11.2059 0 0 9.525 0 21.25C0 32.975 11.2059 42.5 25 42.5H26.4706V50C40.7647 44.15 50 32.5 50 21.25C50 9.525 38.7941 0 25 0ZM27.9412 36.25H22.0588V31.25H27.9412V36.25ZM27.9412 27.5H22.0588C22.0588 19.375 30.8824 20 30.8824 15C30.8824 12.25 28.2353 10 25 10C21.7647 10 19.1176 12.25 19.1176 15H13.2353C13.2353 9.475 18.5 5 25 5C31.5 5 36.7647 9.475 36.7647 15C36.7647 21.25 27.9412 21.875 27.9412 27.5Z" fill="black"/>
</svg>
